<svg id="visual" viewBox="0 0 1920 1080" width="1920" height="1080" xmlns="http://www.w3.org/2000/svg" xmlns:xlink="http://www.w3.org/1999/xlink" version="1.1"><rect x="0" y="0" width="1920" height="1080" fill="#ffffff"></rect><defs><linearGradient id="grad1_0" x1="43.8%" y1="0%" x2="100%" y2="100%"><stop offset="14.444444444444446%" stop-color="#e1bee7" stop-opacity="1"></stop><stop offset="85.55555555555554%" stop-color="#e1bee7" stop-opacity="1"></stop></linearGradient></defs><defs><linearGradient id="grad1_1" x1="43.8%" y1="0%" x2="100%" y2="100%"><stop offset="14.444444444444446%" stop-color="#e1bee7" stop-opacity="1"></stop><stop offset="85.55555555555554%" stop-color="#e9ceed" stop-opacity="1"></stop></linearGradient></defs><defs><linearGradient id="grad1_2" x1="43.8%" y1="0%" x2="100%" y2="100%"><stop offset="14.444444444444446%" stop-color="#f0def3" stop-opacity="1"></stop><stop offset="85.55555555555554%" stop-color="#e9ceed" stop-opacity="1"></stop></linearGradient></defs><defs><linearGradient id="grad1_3" x1="43.8%" y1="0%" x2="100%" y2="100%"><stop offset="14.444444444444446%" stop-color="#f0def3" stop-opacity="1"></stop><stop offset="85.55555555555554%" stop-color="#f8eff9" stop-opacity="1"></stop></linearGradient></defs><defs><linearGradient id="grad1_4" x1="43.8%" y1="0%" x2="100%" y2="100%"><stop offset="14.444444444444446%" stop-color="#ffffff" stop-opacity="1"></stop><stop offset="85.55555555555554%" stop-color="#f8eff9" stop-opacity="1"></stop></linearGradient></defs><defs><linearGradient id="grad2_0" x1="0%" y1="0%" x2="56.3%" y2="100%"><stop offset="14.444444444444446%" stop-color="#e1bee7" stop-opacity="1"></stop><stop offset="85.55555555555554%" stop-color="#e1bee7" stop-opacity="1"></stop></linearGradient></defs><defs><linearGradient id="grad2_1" x1="0%" y1="0%" x2="56.3%" y2="100%"><stop offset="14.444444444444446%" stop-color="#e9ceed" stop-opacity="1"></stop><stop offset="85.55555555555554%" stop-color="#e1bee7" stop-opacity="1"></stop></linearGradient></defs><defs><linearGradient id="grad2_2" x1="0%" y1="0%" x2="56.3%" y2="100%"><stop offset="14.444444444444446%" stop-color="#e9ceed" stop-opacity="1"></stop><stop offset="85.55555555555554%" stop-color="#f0def3" stop-opacity="1"></stop></linearGradient></defs><defs><linearGradient id="grad2_3" x1="0%" y1="0%" x2="56.3%" y2="100%"><stop offset="14.444444444444446%" stop-color="#f8eff9" stop-opacity="1"></stop><stop offset="85.55555555555554%" stop-color="#f0def3" stop-opacity="1"></stop></linearGradient></defs><defs><linearGradient id="grad2_4" x1="0%" y1="0%" x2="56.3%" y2="100%"><stop offset="14.444444444444446%" stop-color="#f8eff9" stop-opacity="1"></stop><stop offset="85.55555555555554%" stop-color="#ffffff" stop-opacity="1"></stop></linearGradient></defs><g transform="translate(1920, 0)"><path d="M0 972C-97.9 887.8 -195.7 803.5 -318.4 768.7C-441 733.8 -588.4 748.3 -687.3 687.3C-786.2 626.3 -836.5 489.9 -875.8 362.8C-915.2 235.7 -943.6 117.8 -972 0L0 0Z" fill="#fbf7fc"></path><path d="M0 777.6C-78.3 710.2 -156.6 642.8 -254.7 614.9C-352.8 587 -470.8 598.6 -549.8 549.8C-628.9 501.1 -669.2 391.9 -700.7 290.2C-732.2 188.5 -754.9 94.3 -777.6 0L0 0Z" fill="#f4e6f6"></path><path d="M0 583.2C-58.7 532.7 -117.4 482.1 -191 461.2C-264.6 440.3 -353.1 449 -412.4 412.4C-471.7 375.8 -501.9 293.9 -525.5 217.7C-549.1 141.4 -566.2 70.7 -583.2 0L0 0Z" fill="#edd6f0"></path><path d="M0 388.8C-39.1 355.1 -78.3 321.4 -127.4 307.5C-176.4 293.5 -235.4 299.3 -274.9 274.9C-314.5 250.5 -334.6 196 -350.3 145.1C-366.1 94.3 -377.4 47.1 -388.8 0L0 0Z" fill="#e5c6ea"></path><path d="M0 194.4C-19.6 177.6 -39.1 160.7 -63.7 153.7C-88.2 146.8 -117.7 149.7 -137.5 137.5C-157.2 125.3 -167.3 98 -175.2 72.6C-183 47.1 -188.7 23.6 -194.4 0L0 0Z" fill="#e1bee7"></path></g><g transform="translate(0, 1080)"><path d="M0 -972C128.9 -962.5 257.7 -953 372 -898C486.2 -843 585.7 -742.5 633.6 -633.6C681.4 -524.7 677.5 -407.4 725.2 -300.4C773 -193.4 872.5 -96.7 972 0L0 0Z" fill="#fbf7fc"></path><path d="M0 -777.6C103.1 -770 206.2 -762.4 297.6 -718.4C388.9 -674.4 468.6 -594 506.9 -506.9C545.1 -419.7 542 -325.9 580.2 -240.3C618.4 -154.7 698 -77.4 777.6 0L0 0Z" fill="#f4e6f6"></path><path d="M0 -583.2C77.3 -577.5 154.6 -571.8 223.2 -538.8C291.7 -505.8 351.4 -445.5 380.1 -380.1C408.8 -314.8 406.5 -244.4 435.1 -180.2C463.8 -116.1 523.5 -58 583.2 0L0 0Z" fill="#edd6f0"></path><path d="M0 -388.8C51.5 -385 103.1 -381.2 148.8 -359.2C194.5 -337.2 234.3 -297 253.4 -253.4C272.6 -209.9 271 -163 290.1 -120.2C309.2 -77.4 349 -38.7 388.8 0L0 0Z" fill="#e5c6ea"></path><path d="M0 -194.4C25.8 -192.5 51.5 -190.6 74.4 -179.6C97.2 -168.6 117.1 -148.5 126.7 -126.7C136.3 -104.9 135.5 -81.5 145 -60.1C154.6 -38.7 174.5 -19.3 194.4 0L0 0Z" fill="#e1bee7"></path></g></svg>